<?xml version="1.0" encoding="utf-8"?>
<!-- Generator: Adobe Illustrator 19.0.0, SVG Export Plug-In . SVG Version: 6.00 Build 0)  -->
<svg version="1.1" xmlns="http://www.w3.org/2000/svg" xmlns:xlink="http://www.w3.org/1999/xlink" x="0px" y="0px"
	 viewBox="0 0 759 178.9" style="enable-background:new 0 0 759 178.9;" xml:space="preserve">
<g id="logo-font-svg" fill="#333333">
	<g id="豊">
		<path id="XMLID_262_" d="M146.7,13.6h-31.6c0-3.5,0-7.1,0-8.9c-1.6-5.7-12.2-5.2-13.2,0c0,1.7,0,5.3,0,8.9H72.4c0-3.7,0-7.4,0-9.4
			c-1.7-5.9-12.7-5.4-13.8,0c0,1.8,0,5.6,0,9.4H29.2c-6.8,0.5-12.3,5.2-13.3,12v37.9c1.2,6.8,4.9,11.5,11.1,11.8h121.1
			c6.9,0.3,11.5-4.9,12.2-11.9V26.1C160.3,19.2,155.2,13.8,146.7,13.6z M58.7,64.3H34.8c-2.9-0.1-4.3-2.2-4.6-5.9v-8.3h28.5V64.3z
			 M58.7,39.3H30.2V31c0.2-3.6,1.6-5.7,4.6-5.9h23.9V39.3z M102.1,64.3H71.9V50.2h30.2V64.3z M102.1,39.3H71.9V25.2h30.2V39.3z
			 M146.2,60c-0.2,2.8-1.7,4.5-5.4,4.3h-25.4l0-14.2h30.9L146.2,60z M115.3,39.3l0-14.2h25.4c3.8-0.2,5.2,1.5,5.4,4.3l0.1,9.9H115.3
			z"/>
		<path id="XMLID_251_" d="M168,96.8H9.5c-9.8,0-9.9-11.8,0-11.8H168C177,85.2,175.9,96.9,168,96.8z"/>
		<path id="XMLID_256_" d="M170,159.6h-44.1l4.6-15.2l16,0c6-0.7,9.2-4.4,9.7-10.9v-15.1c-0.3-6.9-4-11.2-13.2-11.7l-110.3,0.1
			c-7.8,0.5-12.6,4.1-12.9,12v13.4c0.6,7.3,3.8,11.1,9,12.3l17,0l3.8,15.2h-42c-10.3,0.8-10.2,12.8-0.2,12.8h162.3
			C178,172.4,179.1,160.5,170,159.6z M39.6,133.6c-1.9,0-3.1-1.3-3.7-3.7v-7.7c0.1-2.6,1.5-4,4.1-4.3h95.6c2.9,0.2,4.7,1.5,5.1,4
			v7.7c-0.8,2.6-2.5,3.8-5,3.9H39.6z M111,159.6H64.9l-3.8-15.2l54.6,0L111,159.6z"/>
	</g>
	<path id="島" d="M349,111.8H232.1c-2.4-0.1-3.6-1.3-3.7-3.5v-8.3h127.4c11.1,0.3,12.4-13.3,0-12.9H228.5V75.2l107.1,0
		c9.6-0.9,14.6-5.3,15.4-13.1l0.2-33.2c0-9-5.4-13.9-16.8-14.2l-54.2-0.2l2.9-6.7c2.4-8.2-13.7-10.5-17.5-1.2l-2.7,7.8l-28-0.1
		c-19.4,0.1-22.2,3.3-22.4,14.8l0,80.3c-0.5,11,6.1,14.6,16,14.8h23.3v26.9h-31.2c-4,0-5-1.1-5-6v-9.1c-0.1-8.2-14.3-8.4-14.9,0
		v15.1c-0.2,11.2,5,13.9,17.7,14h86.8c10.1,0.2,15-4.6,15-14v-15.3c-0.4-8-15.1-7.5-15.1,0v10.3c0,3.4-1.9,5.4-6.6,5h-32v-26.9H344
		c5.6,0,7.9,2.6,7.5,7.2v6.9c-0.4,16-4.6,22.2-15.8,22.6h-8.8c-10.1,1.1-9.2,16.7,0,17h9.7c18.1,0.2,31.3-9.3,31.3-39.4v-14.4
		C367.1,115.5,360.1,112,349,111.8z M228,31.3c0.4-2.9,2.3-4.3,5.8-4.3h95.4c4.1,0,6.1,1.7,6.2,5v6.7H228V31.3z M228.4,62.8V51
		h107.5v6.7c-0.2,3.3-2.2,5-6.2,5L228.4,62.8z"/>
	<g id="医">
		<path id="XMLID_268_" d="M413.5,143.3V36.1c0-9.5,1.7-12,13.3-12h125.6c13.2,0,14.7-15.1,0-15.1H417.2c-15.9,0-20,5.8-20,19.1
			l-0.1,126.2c0,11.8,7.3,15.5,19.7,15.5h140c13.6,0,13.4-14.5-1-14.5H426C415.1,155.3,413.5,153.9,413.5,143.3z"/>
		<path id="XMLID_276_" d="M543.9,132.2c-21.2-6.7-38.5-18.9-45.3-35.6h49.7c10.9,0,11.8-14.3,0-14.3h-55.9
			c0.9-7.6,1.4-15.6,1.4-24.2h44c11,0,10.9-13.8,0-13.8H453c1.3-2.3,2.6-4.7,3.9-7.1c6.1-11.5-7.2-13.9-12.5-6.2
			c-4.8,9.9-12.4,21.3-21.1,33.2c-3.5,6.1,5.3,13.1,11.2,7.2c3.4-3.6,6.8-8.2,10.2-13.4H479c0,8.9-0.3,17.1-1.2,24.2H430
			c-12,0-11.1,14.3,0,14.3h45.2c-8.7,19.3-24.1,31.5-43.1,36.6c-18,3.5-14,22.8,6,14.5c25.5-10.7,43.7-24.8,49.8-46.6
			c6.3,18.4,29.1,36.8,50,45.5C557.8,154.9,561.9,135.7,543.9,132.2z"/>
	</g>
	<g id="院">
		<path id="XMLID_257_" d="M644.2,21.3c1.9-8.3-5.9-13.4-12.9-13.4h-29c-7.5,0-12.5,7.3-12.5,14.6l0,116.8v31.4
			c0,10.5,14.8,11.4,14.8,0v-31.4h0l0-111c0.3-3.1,1.7-5.2,4.6-5.7h14c5,0,4,5.4,3,8.9l-9.4,27.6c-4.3,9.8-4.8,10.4-0.6,17.7
			c13.4,17.5,17.8,41.9,2.6,45.2c-15,0.6-16.5,17.3,1,17.3c31.6-1.4,25.3-44.4,11.9-60.5c-3.9-5.9-7.6-7.3-0.7-20L644.2,21.3z"/>
		<path id="XMLID_282_" d="M744.1,21.7H706V7.1c-0.1-8.7-16.6-9-16.5,0v14.6h-34c-6.3,1.1-10.3,4.6-11,11.8v21.1
			c0,10,14.1,9.3,14.1,0v-10c-0.1-6.2,2.3-8.7,7-8.9h67.5c5.1-0.2,6.7,2.2,6.8,5.7v14.4c0,6.8,14.8,7.9,14.8,0V32.4
			C753.6,27.4,750.7,23,744.1,21.7z"/>
		<path id="XMLID_274_" d="M733.6,72.1h-66.1c-9.2,0.1-9.1-13.7,0-13.9h66.1C741.1,58.2,740.3,72.1,733.6,72.1z"/>
		<path id="XMLID_253_" d="M743.9,147.5c0.1,6.4-1.4,12-7.9,12h-11.6c-3.5-0.6-4.7-2.8-4.7-7.3V106h27.8c11.2,0,11.2-13.9,0-13.9
			h-92.9c-12.4,0-12.4,13.9,0,13.9h16.3c0.3,29.9-10.7,46.7-29.5,54.3c-18.4,8.8-4.2,24.4,12.3,11.6c23.6-13.8,33.4-40.2,33.2-65.9
			h17.4v53.4c0.3,8.1,3.9,13.3,10.6,13.7h28.1c8-0.5,14.5-8.3,15.1-13.6l0.8-12C759,136.6,743.9,136.6,743.9,147.5z"/>
	</g>
</g>
</svg>
