<?xml version="1.0" encoding="utf-8"?>
<!-- Generator: Adobe Illustrator 19.0.0, SVG Export Plug-In . SVG Version: 6.00 Build 0)  -->
<svg version="1.1" xmlns="http://www.w3.org/2000/svg" xmlns:xlink="http://www.w3.org/1999/xlink" x="0px" y="0px"
	 viewBox="0 0 269.3 269.3" style="enable-background:new 0 0 269.3 269.3;" xml:space="preserve">
<style type="text/css">
	.st0{display:none;}
	.st1{display:inline;fill:none;stroke:#000000;stroke-miterlimit:10;}
	.st2{fill:none;stroke:#000000;stroke-miterlimit:10;}
	.st3{display:inline;fill:none;stroke:#00A0E9;stroke-miterlimit:10;}
	.st4{display:none;fill:none;stroke:#000000;stroke-miterlimit:10;}
	.st5{fill:none;stroke:#3EB0E0;stroke-width:12;stroke-linecap:round;stroke-linejoin:round;stroke-miterlimit:10;}
	.st6{fill:none;stroke:#0F72AF;stroke-width:12;stroke-linecap:round;stroke-linejoin:round;stroke-miterlimit:10;}
</style>
<g id="レイヤー_1" class="st0">
	<rect id="基準" x="-373.3" y="-7" class="st1" width="283.5" height="283.5"/>
	<circle id="内接円" class="st1" cx="-231.6" cy="134.7" r="141.7"/>
	<line id="中心線" class="st2" x1="-231.6" y1="-58.9" x2="-231.6" y2="419.8"/>
	<line id="垂直中心" class="st2" x1="-425.5" y1="134.7" x2="-36.2" y2="134.7"/>
	<path id="XMLID_7_" class="st1" d="M-231.6,242.4"/>
	<path id="XMLID_6_" class="st3" d="M-231.6,183.8c66.7,0,70.8-35,70.8-35s50.5,8.3,50.5-38.3c0-46.6-61.3-49.9-61.3-49.9
		s3.5-39.3-59.9-39.3l0,0l0,0h0l0,0c-63.4,0-59.9,39.3-59.9,39.3s-61.3,3.3-61.3,49.9c0,46.6,50.5,38.3,50.5,38.3
		S-298.3,183.8-231.6,183.8"/>
	<path id="XMLID_5_" class="st1" d="M-110.3,110.5c0-46.6-61.3-49.9-61.3-49.9s3.5-39.3-59.9-39.3h0c-63.4,0-59.9,39.3-59.9,39.3
		s-61.3,3.3-61.3,49.9c0,14,4.6,23,10.9,28.9c10.3,38.2,35,117.1,61.7,117.1c35.3,0,29.9-14,48.6-14s13.3,14,48.6,14
		c25.7,0,51.4-76.9,63.4-118.8C-114.1,131.8-110.3,123.2-110.3,110.5z"/>
	<path id="XMLID_4_" class="st2" d="M-112.4,281.2c0,0-35.2,145.2-70.6,145.2c-35.3,0-29.9-14-48.6-14s-13.3,14-48.6,14
		s-66.9-137.4-66.9-137.4"/>
	<line id="XMLID_1_" class="st3" x1="-269.6" y1="102.5" x2="-193.6" y2="102.5"/>
	<line id="XMLID_2_" class="st3" x1="-231.6" y1="72.2" x2="-231.6" y2="132.9"/>
</g>
<g id="レイヤー_2">
	<rect id="基準_1_" x="-5.4" y="-7" class="st4" width="283.5" height="283.5"/>
	<circle id="内接円_1_" class="st4" cx="136.3" cy="134.7" r="141.7"/>
	<line id="XMLID_9_" class="st5" x1="96.6" y1="102.5" x2="172.6" y2="102.5"/>
	<line id="XMLID_8_" class="st5" x1="134.6" y1="72.2" x2="134.6" y2="132.9"/>
	<path id="XMLID_11_" class="st6" d="M23.8,139.3c10.3,38.2,35,117.1,61.7,117.1c35.3,0,29.9-14,48.6-14s13.3,14,48.6,14
		c25.7,0,50.6-74.4,62.7-116.3c-0.7,2.5,0,0.1,0,0.1"/>
	<path id="XMLID_12_" class="st5" d="M134.6,183.2c66.7,0,70.8-35,70.8-35s50.5,8.3,50.5-38.3c0-46.6-61.3-49.9-61.3-49.9
		s3.5-39.3-59.9-39.3l0,0l0,0h0l0,0C71.2,20.7,74.7,60,74.7,60s-61.3,3.3-61.3,49.9c0,46.6,51.5,38.3,51.5,38.3
		S67.9,183.2,134.6,183.2"/>
</g>
</svg>
