<?xml version="1.0" encoding="utf-8"?>
<!-- Generator: Adobe Illustrator 19.0.0, SVG Export Plug-In . SVG Version: 6.00 Build 0)  -->
<svg version="1.1" xmlns="http://www.w3.org/2000/svg" xmlns:xlink="http://www.w3.org/1999/xlink" x="0px" y="0px"
	 viewBox="0 0 340.2 340.2" style="enable-background:new 0 0 340.2 340.2;" xml:space="preserve">
<style type="text/css">
	.st0{display:none;}
	.st1{display:inline;fill:none;stroke:#000000;stroke-miterlimit:10;}
	.st2{fill:none;stroke:#000000;stroke-miterlimit:10;}
	.st3{display:inline;fill:none;stroke:#00A0E9;stroke-miterlimit:10;}
	.st4{display:inline;fill:#FFFFFF;}
	.st5{display:inline;fill:#0F72AF;}
	.st6{display:inline;}
	.st7{fill:none;stroke:#FFFFFF;stroke-width:12;stroke-linecap:round;stroke-linejoin:round;stroke-miterlimit:10;}
	.st8{fill:#0F72AF;}
</style>
<g id="レイヤー_1" class="st0">
	<rect id="基準" x="-725.9" y="28.4" class="st1" width="283.5" height="283.5"/>
	<circle id="内接円" class="st1" cx="-584.1" cy="170.1" r="141.7"/>
	<line id="中心線" class="st2" x1="-477.8" y1="-434.8" x2="-477.8" y2="43.9"/>
	<line id="垂直中心" class="st2" x1="-671.7" y1="-241.2" x2="-282.4" y2="-241.2"/>
	<path id="XMLID_188_" class="st1" d="M-584.1,277.9"/>
	<path id="XMLID_189_" class="st3" d="M-584.1,219.2c66.7,0,70.8-35,70.8-35s50.5,8.3,50.5-38.3c0-46.6-61.3-49.9-61.3-49.9
		s3.5-39.3-59.9-39.3l0,0l0,0h0l0,0c-63.4,0-59.9,39.3-59.9,39.3s-61.3,3.3-61.3,49.9c0,46.6,50.5,38.3,50.5,38.3
		S-650.9,219.2-584.1,219.2"/>
	<path id="XMLID_190_" class="st1" d="M-462.9,145.9c0-46.6-61.3-49.9-61.3-49.9s3.5-39.3-59.9-39.3h0c-63.4,0-59.9,39.3-59.9,39.3
		s-61.3,3.3-61.3,49.9c0,14,4.6,23,10.9,28.9c10.3,38.2,35,117.1,61.7,117.1c35.3,0,29.9-14,48.6-14s13.3,14,48.6,14
		c25.7,0,51.4-76.9,63.4-118.8C-466.6,167.3-462.9,158.6-462.9,145.9z"/>
	<path id="XMLID_191_" class="st2" d="M-358.7-94.7c0,0-35.2,145.2-70.6,145.2c-35.3,0-29.9-14-48.6-14s-13.3,14-48.6,14
		s-66.9-137.4-66.9-137.4"/>
	<line id="XMLID_192_" class="st3" x1="-622.1" y1="138" x2="-546.1" y2="138"/>
	<line id="XMLID_193_" class="st3" x1="-584.1" y1="107.6" x2="-584.1" y2="168.3"/>
</g>
<g id="favicon_x2C_touch-icon" class="st0">
	<rect id="基準_4_" x="-388" class="st4" width="340.2" height="340.2"/>
	<circle id="内接円_2_" class="st5" cx="-217.9" cy="170.1" r="158.7"/>
	<g id="XMLID_705_" class="st6">
		<line id="XMLID_709_" class="st7" x1="-255.9" y1="134.1" x2="-179.9" y2="134.1"/>
		<line id="XMLID_708_" class="st7" x1="-217.9" y1="103.7" x2="-217.9" y2="164.4"/>
		<path id="XMLID_707_" class="st7" d="M-328.7,170.9c10.3,38.2,35,117.1,61.7,117.1c35.3,0,29.9-14,48.6-14s13.3,14,48.6,14
			c25.7,0,50.6-74.4,62.7-116.3c-0.7,2.5,0,0.1,0,0.1"/>
		<path id="XMLID_706_" class="st7" d="M-217.9,214.7c66.7,0,70.8-35,70.8-35s50.5,8.3,50.5-38.3c0-46.6-61.3-49.9-61.3-49.9
			s3.5-39.3-59.9-39.3l0,0l0,0h0l0,0c-63.4,0-59.9,39.3-59.9,39.3s-61.3,3.3-61.3,49.9c0,46.6,51.5,38.3,51.5,38.3
			S-284.6,214.7-217.9,214.7"/>
	</g>
</g>
<g id="icon-white">
	<rect id="基準_2_" class="st8" width="340.2" height="340.2"/>
	<g id="XMLID_200_">
		<line id="XMLID_205_" class="st7" x1="132.1" y1="134.1" x2="208.1" y2="134.1"/>
		<line id="XMLID_203_" class="st7" x1="170.1" y1="103.7" x2="170.1" y2="164.4"/>
		<path id="XMLID_202_" class="st7" d="M59.3,170.9C69.6,209.1,94.2,288,121,288c35.3,0,29.9-14,48.6-14s13.3,14,48.6,14
			c25.7,0,50.6-74.4,62.7-116.3c-0.7,2.5,0,0.1,0,0.1"/>
		<path id="XMLID_201_" class="st7" d="M170.1,214.7c66.7,0,70.8-35,70.8-35s50.5,8.3,50.5-38.3c0-46.6-61.3-49.9-61.3-49.9
			s3.5-39.3-59.9-39.3l0,0l0,0h0l0,0c-63.4,0-59.9,39.3-59.9,39.3s-61.3,3.3-61.3,49.9c0,46.6,51.5,38.3,51.5,38.3
			S103.3,214.7,170.1,214.7"/>
	</g>
</g>
<g id="kosugi_トレース" class="st0">
	<g id="豊" class="st6">
		<path id="XMLID_262_" d="M-612.8,503.3h-31.6c0-3.5,0-7.1,0-8.9c-1.6-5.7-12.2-5.2-13.2,0c0,1.7,0,5.3,0,8.9h-29.5
			c0-3.7,0-7.4,0-9.4c-1.7-5.9-12.7-5.4-13.8,0c0,1.8,0,5.6,0,9.4h-29.4c-6.8,0.5-12.3,5.2-13.3,12v37.9c1.2,6.8,4.9,11.5,11.1,11.8
			h121.1c6.9,0.3,11.5-4.9,12.2-11.9v-37.3C-599.2,508.8-604.3,503.5-612.8,503.3z M-700.7,554h-23.9c-2.9-0.1-4.3-2.2-4.6-5.9v-8.3
			h28.5V554z M-700.7,529h-28.5v-8.3c0.2-3.6,1.6-5.7,4.6-5.9h23.9V529z M-657.4,554h-30.2v-14.2h30.2V554z M-657.4,529h-30.2v-14.2
			h30.2V529z M-613.3,549.7c-0.2,2.8-1.7,4.5-5.4,4.3h-25.4l0-14.2h30.9L-613.3,549.7z M-644.1,529l0-14.2h25.4
			c3.8-0.2,5.2,1.5,5.4,4.3l0.1,9.9H-644.1z"/>
		<path id="XMLID_251_" d="M-591.5,586.5H-750c-9.8,0-9.9-11.8,0-11.8h158.5C-582.5,574.9-583.6,586.6-591.5,586.5z"/>
		<path id="XMLID_256_" d="M-589.4,649.3h-44.1l4.6-15.2l16,0c6-0.7,9.2-4.4,9.7-10.9V608c-0.3-6.9-4-11.2-13.2-11.7l-110.3,0.1
			c-7.8,0.5-12.6,4.1-12.9,12v13.4c0.6,7.3,3.8,11.1,9,12.3l17,0l3.8,15.2h-42c-10.3,0.8-10.2,12.8-0.2,12.8h162.3
			C-581.5,662.1-580.4,650.1-589.4,649.3z M-719.8,623.3c-1.9,0-3.1-1.3-3.7-3.7v-7.7c0.1-2.6,1.5-4,4.1-4.3h95.6
			c2.9,0.2,4.7,1.5,5.1,4v7.7c-0.8,2.6-2.5,3.8-5,3.9H-719.8z M-648.4,649.3h-46.2l-3.8-15.2l54.6,0L-648.4,649.3z"/>
	</g>
	<path id="島" class="st6" d="M-410.4,601.5h-116.9c-2.4-0.1-3.6-1.3-3.7-3.5v-8.3h127.4c11.1,0.3,12.4-13.3,0-12.9H-531v-11.9
		l107.1,0c9.6-0.9,14.6-5.3,15.4-13.1l0.2-33.2c0-9-5.4-13.9-16.8-14.2l-54.2-0.2l2.9-6.7c2.4-8.2-13.7-10.5-17.5-1.2l-2.7,7.8
		l-28-0.1c-19.4,0.1-22.2,3.3-22.4,14.8l0,80.3c-0.5,11,6.1,14.6,16,14.8h23.3v26.9h-31.2c-4,0-5-1.1-5-6v-9.1
		c-0.1-8.2-14.3-8.4-14.9,0v15.1c-0.2,11.2,5,13.9,17.7,14h86.8c10.1,0.2,15-4.6,15-14v-15.3c-0.4-8-15.1-7.5-15.1,0v10.3
		c0,3.4-1.9,5.4-6.6,5h-32V614h77.5c5.6,0,7.9,2.6,7.5,7.2v6.9c-0.4,16-4.6,22.2-15.8,22.6h-8.8c-10.1,1.1-9.2,16.7,0,17h9.7
		c18.1,0.2,31.3-9.3,31.3-39.4V614C-392.4,605.2-399.4,601.6-410.4,601.5z M-531.4,521c0.4-2.9,2.3-4.3,5.8-4.3h95.4
		c4.1,0,6.1,1.7,6.2,5v6.7h-107.5V521z M-531.1,552.4v-11.8h107.5v6.7c-0.2,3.3-2.2,5-6.2,5L-531.1,552.4z"/>
	<g id="医" class="st6">
		<path id="XMLID_268_" d="M-346,633V525.8c0-9.5,1.7-12,13.3-12h125.6c13.2,0,14.7-15.1,0-15.1h-135.1c-15.9,0-20,5.8-20,19.1
			l-0.1,126.2c0,11.8,7.3,15.5,19.7,15.5h140c13.6,0,13.4-14.5-1-14.5h-129.7C-344.4,645-346,643.6-346,633z"/>
		<path id="XMLID_276_" d="M-215.6,621.8c-21.2-6.7-38.5-18.9-45.3-35.6h49.7c10.9,0,11.8-14.3,0-14.3h-55.9
			c0.9-7.6,1.4-15.6,1.4-24.3h44c11,0,10.9-13.8,0-13.8h-84.7c1.3-2.3,2.6-4.7,3.9-7.1c6.1-11.5-7.2-13.9-12.5-6.2
			c-4.8,9.9-12.4,21.3-21.1,33.3c-3.5,6.1,5.3,13.1,11.2,7.2c3.4-3.6,6.8-8.2,10.2-13.4h34.3c0,8.9-0.3,17.1-1.2,24.3h-47.8
			c-12,0-11.1,14.3,0,14.3h45.2c-8.7,19.3-24.1,31.5-43.1,36.6c-18,3.5-14,22.8,6,14.5c25.5-10.7,43.7-24.8,49.8-46.6
			c6.3,18.4,29.1,36.8,50,45.5C-201.6,644.6-197.5,625.4-215.6,621.8z"/>
	</g>
	<g id="院" class="st6">
		<path id="XMLID_257_" d="M-115.2,511c1.9-8.3-5.9-13.4-12.9-13.4h-29c-7.5,0-12.5,7.3-12.5,14.6l0,116.8v31.4
			c0,10.5,14.8,11.4,14.8,0V629h0l0-111c0.3-3.1,1.7-5.2,4.6-5.7h14c5,0,4,5.4,3,8.9l-9.4,27.6c-4.3,9.8-4.8,10.4-0.6,17.7
			c13.4,17.5,17.8,41.9,2.6,45.2c-15,0.6-16.5,17.3,1,17.3c31.6-1.4,25.3-44.4,11.9-60.5c-3.9-5.9-7.6-7.3-0.7-20L-115.2,511z"/>
		<path id="XMLID_282_" d="M-15.4,511.4h-38.1v-14.6c-0.1-8.7-16.6-9-16.5,0v14.6h-34c-6.3,1.1-10.3,4.6-11,11.8v21.1
			c0,10,14.1,9.3,14.1,0v-10c-0.1-6.2,2.3-8.7,7-8.9h67.5c5.1-0.2,6.7,2.2,6.8,5.7v14.4c0,6.8,14.8,7.9,14.8,0v-23.4
			C-5.8,517.1-8.8,512.7-15.4,511.4z"/>
		<path id="XMLID_274_" d="M-25.9,561.8H-92c-9.2,0.1-9.1-13.7,0-13.9h66.1C-18.4,547.9-19.1,561.8-25.9,561.8z"/>
		<path id="XMLID_253_" d="M-15.6,637.1c0.1,6.4-1.4,12-7.9,12H-35c-3.5-0.6-4.7-2.8-4.7-7.3v-46.2H-12c11.2,0,11.2-13.9,0-13.9
			h-92.9c-12.4,0-12.4,13.9,0,13.9h16.3c0.3,29.9-10.7,46.7-29.5,54.3c-18.4,8.8-4.2,24.4,12.3,11.6c23.6-13.8,33.4-40.2,33.2-65.9
			h17.4V649c0.3,8.1,3.9,13.3,10.6,13.7h28.1c8-0.5,14.5-8.3,15.1-13.6l0.8-12C-0.5,626.3-15.6,626.3-15.6,637.1z"/>
	</g>
</g>
<g id="レイヤー_6" class="st0">
</g>
</svg>
