<?xml version="1.0" encoding="utf-8"?>
<!-- Generator: Adobe Illustrator 19.0.0, SVG Export Plug-In . SVG Version: 6.00 Build 0)  -->
<svg version="1.1" id="レイヤー_1" xmlns="http://www.w3.org/2000/svg" xmlns:xlink="http://www.w3.org/1999/xlink" x="0px"
	 y="0px" viewBox="0 0 188 188" style="enable-background:new 0 0 188 188;" xml:space="preserve">
<style type="text/css">
	.st0{fill:#323338;}
	.st1{display:none;}
	.st2{display:inline;fill:none;stroke:#8F97FF;stroke-miterlimit:10;}
	.st3{display:none;fill:#323338;}
	.st4{fill:#8F97FF;}
	.st5{fill:#F5CCB1;}
	.st6{fill:#FFFFFF;}
	.st7{fill:#AE5D58;}
	.st8{fill:#AB5E4F;}
	.st9{fill:none;stroke:#323338;stroke-miterlimit:10;}
</style>
<image style="display:none;overflow:visible;" width="388" height="355" id="XMLID_32_" xlink:href="57628B8B.jpg"  transform="matrix(0.43 0 0 0.43 194 -134.3333)">
</image>
<rect id="XMLID_26_" class="st0" width="188" height="188"/>
<image style="display:none;overflow:visible;" width="290" height="161" id="XMLID_38_" xlink:href="57628B89.jpg"  transform="matrix(0.7308 0 0 0.7308 369.6667 -119.6667)">
</image>
<g id="XMLID_27_" class="st1">
	<ellipse id="XMLID_28_" class="st2" cx="259.6" cy="69.3" rx="5.9" ry="9.5"/>
	<ellipse id="XMLID_33_" class="st2" cx="261.8" cy="69.3" rx="3.7" ry="5.9"/>
	<ellipse id="XMLID_34_" class="st2" cx="297.6" cy="69.3" rx="5.9" ry="9.5"/>
	<ellipse id="XMLID_30_" class="st2" cx="299.8" cy="69.3" rx="3.7" ry="5.9"/>
	<circle id="XMLID_37_" class="st2" cx="280.6" cy="78.1" r="1.9"/>
	<path id="XMLID_29_" class="st2" d="M271.6,79.8l8.2,4.1c0,0-3.7,3.9-6.6,2.3S271.6,79.8,271.6,79.8z"/>
	<line id="XMLID_31_" class="st2" x1="255.6" y1="55" x2="263.6" y2="53.8"/>
	<path id="XMLID_44_" class="st2" d="M316.3,38c0.8-2.9,3.3-13.7-0.5-18.1c-6.7-2.6-18.3,4-21.1,5.7c-5-1.2-10.5-1.9-16.6-1.9
		c-6.1,0-11.7,0.7-16.6,1.9c-2.8-1.7-14.4-8.4-21.1-5.8c-3.9,4.5-1.2,15.5-0.5,18.3c-5.1,6-7.7,13.5-7.7,21.6
		c0,22.4,19.6,34.3,45.8,34.3C305,94,324,86.4,324,59.7C324,51.1,321.3,43.8,316.3,38z"/>
	<path id="XMLID_40_" class="st2" d="M314,71c0,9.6-7.3,19.3-34.6,19.3c-25.8,0-34.3-9.8-35.4-19.3c-1.7-14.1,12.9-23,33.7-17.7
		c0.9,0.2,1.8,0.3,2.7,0.1C306.3,48.1,314,61.6,314,71z"/>
</g>
<g id="XMLID_36_">
	<ellipse id="XMLID_35_" class="st3" cx="94.5" cy="96.2" rx="160.5" ry="153.8"/>
	<path id="XMLID_41_" class="st4" d="M163.3,64.6c1.4-5.1,7.1-20.5-4.2-28.3c-12.2-6.8-29.7,3.8-34.8,6.8c-9-2.1-19.1-3.3-30-3.3
		c-11.1,0-21.1,1.2-30,3.3c-5-3-21.7-13.7-34.9-6.9C20.2,42,24,60,25.3,64.8c-9.3,10.4-13.9,23.4-13.9,37.5
		c0,38.9,35.5,59.5,82.9,59.5c48.5,0.1,82.9-13.2,82.9-59.5C177.2,87.5,172.3,74.7,163.3,64.6z"/>
	<path id="XMLID_39_" class="st5" d="M159.1,121.9c0,16.6-13.3,33.5-62.5,33.5c-46.6,0-62-17-64.1-33.5c-3-24.5,23.3-39.9,60.9-30.7
		c1.6,0.4,3.3,0.4,4.9,0.1C145.1,82.3,159.1,105.6,159.1,121.9z"/>
	<ellipse id="XMLID_49_" class="st6" cx="60.7" cy="119" rx="10.7" ry="16.4"/>
	<ellipse id="XMLID_48_" class="st7" cx="64.7" cy="119" rx="6.7" ry="10.3"/>
	<ellipse id="XMLID_47_" class="st6" cx="129.4" cy="119" rx="10.7" ry="16.4"/>
	<ellipse id="XMLID_46_" class="st8" cx="133.4" cy="119" rx="6.7" ry="10.3"/>
	<ellipse id="XMLID_45_" class="st7" cx="98.7" cy="134.2" rx="3.5" ry="3.3"/>
	<path id="XMLID_43_" class="st8" d="M82.4,137.1l14.8,7.2c0,0-6.7,6.8-12,4S82.4,137.1,82.4,137.1z"/>
	<line id="XMLID_42_" class="st9" x1="48.4" y1="99.8" x2="68.8" y2="93.9"/>
</g>
</svg>
