<?xml version="1.0" encoding="utf-8"?>
<!-- Generator: Adobe Illustrator 19.0.0, SVG Export Plug-In . SVG Version: 6.00 Build 0)  -->
<svg version="1.1" id="Layer_1" xmlns="http://www.w3.org/2000/svg" xmlns:xlink="http://www.w3.org/1999/xlink" x="0px" y="0px"
	 viewBox="-223 25 512 512" style="enable-background:new -223 25 512 512;" xml:space="preserve">
<style type="text/css">
	.st0{fill:#333333;}
</style>
<path class="st0" d="M35.5,532.2c-138.3,0.4-251.8-114.6-248.6-255.1C-210.1,143.1-99,32,39.3,33.7
	c136.6,1.6,249.4,115.4,245.9,255.9C281.7,423.1,171.6,533,35.5,532.2z M149.4,411.6c0.7,0,1.3-0.1,2-0.1c1.5-4.7,2.9-9.4,4.4-14.1
	c9-28.9,18.4-57.6,26.8-86.6c5.7-19.8,6.8-40,1.1-60.2c-4-14.1-11.2-26.6-18.7-39c-6.4-10.5-12.6-21.1-14.6-33.6
	c-2.9-18.6,8.5-37.3,26.4-41.4c6.7-1.5,14-0.8,20.6-1.1C162.4,93.1,90.5,52.7,5.8,65.1c-70.7,10.5-123.2,48.4-160.4,109.6
	c9.7,0,18.3,0.1,26.8,0c14-0.2,28-0.4,42-0.9c9.3-0.3,18.6-1.2,27.9-1.6c4.9-0.2,8.4,2.6,9,6.9c0.6,4.6-2.1,8.1-7.2,9.1
	c-2.4,0.5-5,0.6-7.4,0.9c-5.4,0.6-10.8,1.1-16.8,1.7c25.1,74.6,50,148.5,74.9,222.5c0.6-0.1,1.3-0.1,1.9-0.2
	c0.6-1.5,1.3-2.9,1.8-4.4c13.6-40.5,27.2-81,40.8-121.5c1.6-4.8,2.2-9.4,0.3-14.5C29.7,246.9,20.2,221,11,195
	c-1.2-3.5-2.9-4.5-6.4-4.7c-6.3-0.4-12.6-1.3-18.8-2.2c-3.6-0.5-5.4-3.1-5.7-6.6c-0.3-3.6,0.9-6.8,4.5-8.1c2.1-0.8,4.6-1,6.8-0.8
	c34.3,2.8,68.5,3,102.8,0c8.6-0.7,12.5,1.6,12.8,7.3c0.3,5.5-3.1,8.2-11.4,9c-6.4,0.6-12.8,1.2-20,1.9
	C100.1,264.8,124.8,338.2,149.4,411.6z M-38.2,489.8c-0.3-1.5-0.4-2.2-0.6-2.7C-53.9,445.7-68.9,404.3-84,363
	c-19.7-54-39.4-108.1-59.2-162c-0.6-1.6-3.1-3.4-4.9-3.6c-4.1-0.6-8.4,0.2-12.5-0.3c-3.8-0.5-5.2,1-6.5,4.3
	c-11.1,28.3-16.7,57.5-15.4,87.9c3.1,73.3,34.8,131.5,94,174.6C-73.3,474.7-56.8,483.2-38.2,489.8z M117.2,487.3
	c-22-60.4-43.7-119.9-65.4-179.4c-0.6,0-1.2,0-1.8,0.1C28.3,370.8,6.6,433.6-15.3,497C30.1,507.5,74,504.3,117.2,487.3z M150.2,470
	c43.6-25.7,91.9-80.1,102.3-156.6c6.3-46-1.2-89.7-22.6-130.9c0.4,20,1.4,40.1-3.5,59.7c-4.1,16.6-9.6,32.8-15.1,49
	c-16.6,48.8-33.5,97.4-50.2,146.1C157.5,447.8,154.1,458.4,150.2,470z"/>
</svg>
